<svg width="25" height="25" viewBox="0 0 25 25" fill="none" xmlns="http://www.w3.org/2000/svg">
<path fill-rule="evenodd" clip-rule="evenodd" d="M21.836 8.26716C21.9719 7.82499 21.836 7.5 21.1885 7.5H19.0475C18.5031 7.5 18.2521 7.78072 18.116 8.0902C18.116 8.0902 17.0273 10.6773 15.4849 12.3577C14.9859 12.8442 14.7591 12.9989 14.4869 12.9989C14.3508 12.9989 14.1539 12.8442 14.1539 12.402V8.26716C14.1539 7.73644 13.9959 7.5 13.5421 7.5H10.1778C9.83751 7.5 9.63289 7.74628 9.63289 7.97974C9.63289 8.48273 10.4041 8.59886 10.4836 10.0139V13.0875C10.4836 13.7613 10.3588 13.8836 10.0866 13.8836C9.36084 13.8836 7.5953 11.2848 6.54822 8.31144C6.34299 7.73346 6.13715 7.5 5.58998 7.5H3.44901C2.83731 7.5 2.71497 7.78072 2.71497 8.0902C2.71497 8.64299 3.44075 11.3848 6.09448 15.0112C7.86369 17.4875 10.3564 18.83 12.6246 18.83C13.9855 18.83 14.1539 18.5318 14.1539 18.0183V16.1466C14.1539 15.5503 14.2828 15.4313 14.7137 15.4313C15.0312 15.4313 15.5756 15.586 16.8458 16.78C18.2975 18.1952 18.5369 18.83 19.3533 18.83H21.4943C22.106 18.83 22.4119 18.5318 22.2354 17.9434C22.0424 17.357 21.3492 16.5062 20.4296 15.4976C19.9306 14.9226 19.1821 14.3037 18.9553 13.994C18.6377 13.596 18.7285 13.419 18.9553 13.0653C18.9553 13.0653 21.5637 9.48335 21.836 8.26716Z" fill="white"/>
</svg>
