<svg width="29" height="29" viewBox="0 0 29 29" fill="none" xmlns="http://www.w3.org/2000/svg">
<path d="M2 14.5C2 7.59644 7.59644 2 14.5 2V2C21.4036 2 27 7.59644 27 14.5V14.5C27 21.4036 21.4036 27 14.5 27V27C7.59644 27 2 21.4036 2 14.5V14.5Z" fill="black"/>
<path d="M8 14.5H21" stroke="white" stroke-width="1.5" stroke-linecap="round" stroke-linejoin="round"/>
<path d="M14.5 21L14.5 8" stroke="white" stroke-width="1.5" stroke-linecap="round" stroke-linejoin="round"/>
<path d="M14.5 25.5C8.42487 25.5 3.5 20.5751 3.5 14.5H0.5C0.5 22.232 6.76801 28.5 14.5 28.5V25.5ZM25.5 14.5C25.5 20.5751 20.5751 25.5 14.5 25.5V28.5C22.232 28.5 28.5 22.232 28.5 14.5H25.5ZM14.5 3.5C20.5751 3.5 25.5 8.42487 25.5 14.5H28.5C28.5 6.76801 22.232 0.5 14.5 0.5V3.5ZM14.5 0.5C6.76801 0.5 0.5 6.76801 0.5 14.5H3.5C3.5 8.42487 8.42487 3.5 14.5 3.5V0.5Z" fill="white"/>
</svg>
