<svg width="300" height="300" viewBox="0 0 300 300" fill="none" xmlns="http://www.w3.org/2000/svg">
<rect width="300" height="300" rx="50" fill="#F7F4F4"/>
<path d="M78.8122 54.8545L78.8122 54.8544C78.7646 54.7171 78.6552 54.584 78.525 54.4623C78.3905 54.3364 78.215 54.2056 78.0088 54.0756C77.596 53.8154 77.0453 53.5494 76.4164 53.3284C75.1619 52.8874 73.5659 52.6147 72.1051 52.949C70.8201 53.2431 69.843 54.1371 69.1543 55.0465C68.4643 55.9576 68.0466 56.9063 67.8851 57.3527C67.8113 57.5569 67.8135 57.7425 67.8656 57.9405C71.8588 73.1161 85.8354 115.255 99.6178 155.242C106.51 175.237 113.354 194.698 118.879 209.985C124.401 225.265 128.611 236.391 130.231 239.705C137.609 255.035 160.396 255.027 168.103 239.708L168.103 239.707C169.724 236.474 173.879 225.376 179.343 210.101C184.81 194.818 191.592 175.337 198.469 155.323C212.224 115.295 226.358 73.1314 231.106 58.1534C231.18 57.9193 231.183 57.698 231.085 57.4601C230.893 56.9895 230.436 56.052 229.739 55.1596C229.044 54.2713 228.092 53.4032 226.902 53.1122C225.279 52.6399 223.075 52.7728 220.306 54.5529C219.913 54.8058 219.631 55.1842 219.48 55.619C202.871 103.338 176.457 167.552 156.789 211.439C155.551 213.848 154.288 215.651 153.017 216.852C151.746 218.053 150.48 218.642 149.229 218.651C147.978 218.661 146.702 218.092 145.411 216.896C144.12 215.7 142.826 213.887 141.547 211.438C121.962 167.689 95.2419 102.312 78.8122 54.8545Z" fill="black" stroke="black" stroke-width="0.4" stroke-linejoin="round"/>
</svg>
