<svg xmlns="http://www.w3.org/2000/svg">
  <symbol viewBox="0 0 20 25" fill="white" id="arrow-down__header" xmlns="http://www.w3.org/2000/svg">
    <path d="M6 11L10 15.5L14 11" stroke="currentColor" stroke-width="1.5" stroke-linecap="round"
      stroke-linejoin="round" />
  </symbol>

  <symbol viewBox="0 0 15 14" fill="white" id="arrow-right__header" xmlns="http://www.w3.org/2000/svg">
    <path
      d="M2.36543 1.6302L13.0164 6.54602C13.4037 6.72477 13.4037 7.27523 13.0164 7.45398L2.36543 12.3698C1.9288 12.5713 1.48722 12.1005 1.71626 11.6777L4.12101 7.23814C4.20148 7.08958 4.20148 6.91042 4.12101 6.76186L1.71626 2.32232C1.48722 1.89947 1.9288 1.42868 2.36543 1.6302Z"
      stroke="currentColor" stroke-width="1.5" stroke-linecap="round" stroke-linejoin="round" />
  </symbol>

  <symbol viewBox="0 0 23 21" fill="white" id="star__header" xmlns="http://www.w3.org/2000/svg">
    <path
      d="M13.9231 3.37165C13.6177 1.80912 11.3823 1.80911 11.0769 3.37165L9.9728 9.0216L4.25818 8.32575C2.67777 8.13331 1.98697 10.2594 3.37867 11.0326L8.4109 13.8286L5.98319 19.0485C5.3118 20.4921 7.12031 21.8061 8.28579 20.7215L12.5 16.7995L16.7142 20.7215C17.8797 21.8061 19.6882 20.4921 19.0168 19.0485L16.5891 13.8286L21.6213 11.0326C23.013 10.2594 22.3222 8.13331 20.7418 8.32575L15.0272 9.0216L13.9231 3.37165Z"
      stroke="currentColor" stroke-width="1.5" />
  </symbol>

  <symbol viewBox="0 0 25 25" fill="white" id="group__header" xmlns="http://www.w3.org/2000/svg">
    <path d="M18 4L23 8.5L18 13" stroke="currentColor" stroke-width="1.5" stroke-linecap="round"
      stroke-linejoin="round" />
    <path d="M7 12L2 16.5L7 21" stroke="currentColor" stroke-width="1.5" stroke-linecap="round"
      stroke-linejoin="round" />
    <path d="M22 8.5L10 8.5" stroke="currentColor" stroke-width="1.5" stroke-linecap="round" stroke-linejoin="round" />
    <path d="M3 16.5L15 16.5" stroke="currentColor" stroke-width="1.5" stroke-linecap="round" stroke-linejoin="round" />
  </symbol>

  <symbol viewBox="0 0 21 25" fill="none" id="shower__header" xmlns="http://www.w3.org/2000/svg">
    <path
      d="M6.36587 11.8563C6.32188 11.208 6.56028 10.5724 7.01972 10.113L8.47094 8.66175C8.93037 8.20231 9.56599 7.96391 10.2143 8.0079L12.6362 8.17224C14.1353 8.27397 14.8177 10.0932 13.7552 11.1557L9.51364 15.3972C8.45117 16.4597 6.63194 15.7774 6.53022 14.2783L6.36587 11.8563Z"
      stroke="black" stroke-width="1.5" />
    <path d="M13.3813 14.8823L14.474 15.9749" stroke="black" stroke-width="1.5" stroke-linecap="round"
      stroke-linejoin="round" />
    <path d="M10.7505 17.3422L11.4576 18.7565" stroke="black" stroke-width="1.5" stroke-linecap="round"
      stroke-linejoin="round" />
    <path d="M15.7006 12.3926L17.1149 13.0997" stroke="black" stroke-width="1.5" stroke-linecap="round"
      stroke-linejoin="round" />
    <path d="M8 9L6.12132 7.12132C4.23143 5.23143 1 6.56993 1 9.24264V16" stroke="black" stroke-width="1.5"
      stroke-linecap="round" stroke-linejoin="round" />
  </symbol>

  <symbol viewBox="0 0 20 25" fill="none" id="list__header" xmlns="http://www.w3.org/2000/svg">
    <rect x="0.75" y="-0.75" width="10.5" height="9.5" rx="1.25" transform="matrix(1 0 0 -1 7 14.5)" stroke="black"
      stroke-width="1.5" />
    <rect x="0.75" y="-0.75" width="10.5" height="9.5" rx="1.25" transform="matrix(1 0 0 -1 2 18.5)" fill="white"
      stroke="black" stroke-width="1.5" />
  </symbol>

  <symbol viewBox="0 0 25 25" fill="none" id="search__header" xmlns="http://www.w3.org/2000/svg">
    <circle cx="11" cy="11" r="6.25" stroke="black" stroke-width="1.5" />
    <path d="M16 16L20 20" stroke="black" stroke-width="1.5" stroke-linecap="round" />
  </symbol>

  <symbol viewBox="0 0 25 25" fill="none" id="pin__header" xmlns="http://www.w3.org/2000/svg">
    <circle cx="12.5" cy="9.5" r="4.75" stroke="black" stroke-width="1.5" />
    <path d="M12.5 15V17.5" stroke="black" stroke-width="1.5" stroke-linecap="round" />
    <path d="M7 19.5C11.2771 20.4903 13.7416 20.5677 18 19.5" stroke="black" stroke-width="1.5"
      stroke-linecap="round" />
  </symbol>

<symbol viewBox="0 0 25 25" fill="none" xmlns="http://www.w3.org/2000/svg" id="footer-logo__vk">
  <path fill-rule="evenodd" clip-rule="evenodd"
    d="M21.836 8.26716C21.9719 7.82499 21.836 7.5 21.1885 7.5H19.0475C18.5031 7.5 18.2521 7.78072 18.116 8.0902C18.116 8.0902 17.0273 10.6773 15.4849 12.3577C14.9859 12.8442 14.7591 12.9989 14.4869 12.9989C14.3508 12.9989 14.1539 12.8442 14.1539 12.402V8.26716C14.1539 7.73644 13.9959 7.5 13.5421 7.5H10.1778C9.83751 7.5 9.63289 7.74628 9.63289 7.97974C9.63289 8.48273 10.4041 8.59886 10.4836 10.0139V13.0875C10.4836 13.7613 10.3588 13.8836 10.0866 13.8836C9.36084 13.8836 7.5953 11.2848 6.54822 8.31144C6.34299 7.73346 6.13715 7.5 5.58998 7.5H3.44901C2.83731 7.5 2.71497 7.78072 2.71497 8.0902C2.71497 8.64299 3.44075 11.3848 6.09448 15.0112C7.86369 17.4875 10.3564 18.83 12.6246 18.83C13.9855 18.83 14.1539 18.5318 14.1539 18.0183V16.1466C14.1539 15.5503 14.2828 15.4313 14.7137 15.4313C15.0312 15.4313 15.5756 15.586 16.8458 16.78C18.2975 18.1952 18.5369 18.83 19.3533 18.83H21.4943C22.106 18.83 22.4119 18.5318 22.2354 17.9434C22.0424 17.357 21.3492 16.5062 20.4296 15.4976C19.9306 14.9226 19.1821 14.3037 18.9553 13.994C18.6377 13.596 18.7285 13.419 18.9553 13.0653C18.9553 13.0653 21.5637 9.48335 21.836 8.26716Z"
    fill="white" />
</symbol>

<symbol viewBox="0 0 25 25" fill="none" xmlns="http://www.w3.org/2000/svg" id="logo-footer__youtube">
  <path fill-rule="evenodd" clip-rule="evenodd"
    d="M21.8954 7.08424C22.2197 7.39382 22.4533 7.77888 22.5728 8.20112C23.0208 9.76578 22.9998 13.028 22.9998 13.028C22.9998 13.028 22.9967 16.2722 22.5623 17.8359C22.441 18.2577 22.2061 18.6421 21.881 18.9511C21.5558 19.26 21.1516 19.4828 20.7083 19.5973C19.0651 20.007 12.4915 20 12.4915 20C12.4915 20 5.93577 19.993 4.27584 19.5634C3.37558 19.3326 2.66733 18.6561 2.426 17.7999C1.99581 16.2512 2 12.99 2 12.99C2 12.99 2.0042 9.74479 2.43754 8.18014C2.56061 7.75762 2.79567 7.37232 3.12015 7.06123C3.44464 6.75014 3.84767 6.5237 4.29053 6.40366C5.93472 5.99301 12.5073 6.00001 12.5073 6.00001C12.5073 6.00001 19.0809 6.007 20.724 6.43663C21.1672 6.55139 21.571 6.77467 21.8954 7.08424ZM17 13L10 9V17L17 13Z"
    fill="white" />
</symbol>

</svg>
