<svg xmlns="http://www.w3.org/2000/svg">
  <symbol viewBox="0 0 20 25" fill="white" id="arrow-down__header" xmlns="http://www.w3.org/2000/svg">
    <path d="M6 11L10 15.5L14 11" stroke="currentColor" stroke-width="1.5" stroke-linecap="round"
      stroke-linejoin="round" />
  </symbol>

  <symbol viewBox="0 0 15 14" fill="white" id="arrow-right__header" xmlns="http://www.w3.org/2000/svg">
    <path
      d="M2.36543 1.6302L13.0164 6.54602C13.4037 6.72477 13.4037 7.27523 13.0164 7.45398L2.36543 12.3698C1.9288 12.5713 1.48722 12.1005 1.71626 11.6777L4.12101 7.23814C4.20148 7.08958 4.20148 6.91042 4.12101 6.76186L1.71626 2.32232C1.48722 1.89947 1.9288 1.42868 2.36543 1.6302Z"
      stroke="currentColor" stroke-width="1.5" stroke-linecap="round" stroke-linejoin="round" />
  </symbol>

  <symbol viewBox="0 0 23 21" fill="white" id="star__header" xmlns="http://www.w3.org/2000/svg">
    <path
      d="M13.9231 3.37165C13.6177 1.80912 11.3823 1.80911 11.0769 3.37165L9.9728 9.0216L4.25818 8.32575C2.67777 8.13331 1.98697 10.2594 3.37867 11.0326L8.4109 13.8286L5.98319 19.0485C5.3118 20.4921 7.12031 21.8061 8.28579 20.7215L12.5 16.7995L16.7142 20.7215C17.8797 21.8061 19.6882 20.4921 19.0168 19.0485L16.5891 13.8286L21.6213 11.0326C23.013 10.2594 22.3222 8.13331 20.7418 8.32575L15.0272 9.0216L13.9231 3.37165Z"
      stroke="currentColor" stroke-width="1.5" />
  </symbol>

  <symbol viewBox="0 0 25 25" fill="white" id="group__header" xmlns="http://www.w3.org/2000/svg">
    <path d="M18 4L23 8.5L18 13" stroke="currentColor" stroke-width="1.5" stroke-linecap="round"
      stroke-linejoin="round" />
    <path d="M7 12L2 16.5L7 21" stroke="currentColor" stroke-width="1.5" stroke-linecap="round"
      stroke-linejoin="round" />
    <path d="M22 8.5L10 8.5" stroke="currentColor" stroke-width="1.5" stroke-linecap="round" stroke-linejoin="round" />
    <path d="M3 16.5L15 16.5" stroke="currentColor" stroke-width="1.5" stroke-linecap="round" stroke-linejoin="round" />
  </symbol>

  <symbol viewBox="0 0 21 25" fill="none" id="shower__header" xmlns="http://www.w3.org/2000/svg">
    <path
      d="M6.36587 11.8563C6.32188 11.208 6.56028 10.5724 7.01972 10.113L8.47094 8.66175C8.93037 8.20231 9.56599 7.96391 10.2143 8.0079L12.6362 8.17224C14.1353 8.27397 14.8177 10.0932 13.7552 11.1557L9.51364 15.3972C8.45117 16.4597 6.63194 15.7774 6.53022 14.2783L6.36587 11.8563Z"
      stroke="black" stroke-width="1.5" />
    <path d="M13.3813 14.8823L14.474 15.9749" stroke="black" stroke-width="1.5" stroke-linecap="round"
      stroke-linejoin="round" />
    <path d="M10.7505 17.3422L11.4576 18.7565" stroke="black" stroke-width="1.5" stroke-linecap="round"
      stroke-linejoin="round" />
    <path d="M15.7006 12.3926L17.1149 13.0997" stroke="black" stroke-width="1.5" stroke-linecap="round"
      stroke-linejoin="round" />
    <path d="M8 9L6.12132 7.12132C4.23143 5.23143 1 6.56993 1 9.24264V16" stroke="black" stroke-width="1.5"
      stroke-linecap="round" stroke-linejoin="round" />
  </symbol>

  <symbol viewBox="0 0 20 25" fill="none" id="list__header" xmlns="http://www.w3.org/2000/svg">
    <rect x="0.75" y="-0.75" width="10.5" height="9.5" rx="1.25" transform="matrix(1 0 0 -1 7 14.5)" stroke="black"
      stroke-width="1.5" />
    <rect x="0.75" y="-0.75" width="10.5" height="9.5" rx="1.25" transform="matrix(1 0 0 -1 2 18.5)" fill="white"
      stroke="black" stroke-width="1.5" />
  </symbol>

  <symbol viewBox="0 0 25 25" fill="none" id="search__header" xmlns="http://www.w3.org/2000/svg">
    <circle cx="11" cy="11" r="6.25" stroke="black" stroke-width="1.5" />
    <path d="M16 16L20 20" stroke="black" stroke-width="1.5" stroke-linecap="round" />
  </symbol>

 <symbol viewBox="0 0 25 25" fill="none" id="pin__header" xmlns="http://www.w3.org/2000/svg">
  <circle cx="12.5" cy="9.5" r="4.75" stroke="black" stroke-width="1.5" />
  <path d="M12.5 15V17.5" stroke="black" stroke-width="1.5" stroke-linecap="round" />
  <path d="M7 19.5C11.2771 20.4903 13.7416 20.5677 18 19.5" stroke="black" stroke-width="1.5" stroke-linecap="round" />
</symbol>

</svg>
